<svg width="134" height="29" viewBox="0 0 134 29" fill="none" xmlns="http://www.w3.org/2000/svg">
<path d="M42.321 20.179C41.8371 20.179 41.398 20.0878 41.0036 19.9055C40.6091 19.7199 40.2959 19.4531 40.0639 19.1051C39.8319 18.7538 39.7159 18.3295 39.7159 17.8324C39.7159 17.3949 39.8021 17.0402 39.9744 16.7685C40.1468 16.4934 40.3771 16.2779 40.6655 16.1222C40.9538 15.9664 41.272 15.8504 41.62 15.7741C41.9714 15.6946 42.3243 15.6316 42.679 15.5852C43.143 15.5256 43.5192 15.4808 43.8075 15.451C44.0992 15.4179 44.3113 15.3632 44.4439 15.2869C44.5798 15.2107 44.6477 15.0781 44.6477 14.8892V14.8494C44.6477 14.3589 44.5135 13.9777 44.245 13.706C43.9799 13.4342 43.5772 13.2983 43.0369 13.2983C42.4768 13.2983 42.0376 13.4209 41.7195 13.6662C41.4013 13.9115 41.1776 14.1733 41.0483 14.4517L39.9347 14.054C40.1335 13.59 40.3987 13.2287 40.7301 12.9702C41.0649 12.7083 41.4295 12.526 41.8239 12.4233C42.2216 12.3172 42.6127 12.2642 42.9972 12.2642C43.2424 12.2642 43.5241 12.294 43.8423 12.3537C44.1638 12.41 44.4737 12.5277 44.772 12.7067C45.0736 12.8857 45.3239 13.1558 45.5227 13.517C45.7216 13.8783 45.821 14.3622 45.821 14.9688V20H44.6477V18.9659H44.5881C44.5085 19.1316 44.3759 19.3089 44.1903 19.4979C44.0047 19.6868 43.7578 19.8475 43.4496 19.9801C43.1413 20.1127 42.7652 20.179 42.321 20.179ZM42.5 19.125C42.964 19.125 43.3551 19.0339 43.6733 18.8516C43.9948 18.6693 44.2367 18.4339 44.3991 18.1456C44.5649 17.8572 44.6477 17.554 44.6477 17.2358V16.1619C44.598 16.2216 44.4886 16.2763 44.3196 16.326C44.1539 16.3724 43.9616 16.4138 43.7429 16.4503C43.5275 16.4834 43.317 16.5133 43.1115 16.5398C42.9093 16.563 42.7453 16.5829 42.6193 16.5994C42.3144 16.6392 42.0294 16.7038 41.7642 16.7933C41.5024 16.8795 41.2902 17.0104 41.1278 17.1861C40.9688 17.3584 40.8892 17.5937 40.8892 17.892C40.8892 18.2997 41.04 18.608 41.3416 18.8168C41.6465 19.0223 42.0327 19.125 42.5 19.125ZM50.1158 9.81818V20H48.9425V9.81818H50.1158ZM54.9749 20L52.6482 12.3636H53.8812L55.5317 18.2102H55.6113L57.242 12.3636H58.4948L60.1056 18.1903H60.1851L61.8357 12.3636H63.0687L60.742 20H59.5886L57.9181 14.1335H57.7988L56.1283 20H54.9749ZM67.847 20.179C67.3631 20.179 66.9239 20.0878 66.5295 19.9055C66.1351 19.7199 65.8219 19.4531 65.5899 19.1051C65.3579 18.7538 65.2418 18.3295 65.2418 17.8324C65.2418 17.3949 65.328 17.0402 65.5004 16.7685C65.6727 16.4934 65.9031 16.2779 66.1914 16.1222C66.4798 15.9664 66.798 15.8504 67.146 15.7741C67.4973 15.6946 67.8503 15.6316 68.2049 15.5852C68.6689 15.5256 69.0451 15.4808 69.3335 15.451C69.6251 15.4179 69.8373 15.3632 69.9698 15.2869C70.1057 15.2107 70.1737 15.0781 70.1737 14.8892V14.8494C70.1737 14.3589 70.0394 13.9777 69.771 13.706C69.5058 13.4342 69.1031 13.2983 68.5629 13.2983C68.0027 13.2983 67.5636 13.4209 67.2454 13.6662C66.9272 13.9115 66.7035 14.1733 66.5742 14.4517L65.4606 14.054C65.6595 13.59 65.9246 13.2287 66.2561 12.9702C66.5908 12.7083 66.9554 12.526 67.3498 12.4233C67.7475 12.3172 68.1386 12.2642 68.5231 12.2642C68.7684 12.2642 69.0501 12.294 69.3683 12.3537C69.6898 12.41 69.9997 12.5277 70.298 12.7067C70.5996 12.8857 70.8498 13.1558 71.0487 13.517C71.2475 13.8783 71.347 14.3622 71.347 14.9688V20H70.1737V18.9659H70.114C70.0345 19.1316 69.9019 19.3089 69.7163 19.4979C69.5307 19.6868 69.2838 19.8475 68.9755 19.9801C68.6673 20.1127 68.2911 20.179 67.847 20.179ZM68.0259 19.125C68.49 19.125 68.8811 19.0339 69.1992 18.8516C69.5207 18.6693 69.7627 18.4339 69.9251 18.1456C70.0908 17.8572 70.1737 17.554 70.1737 17.2358V16.1619C70.1239 16.2216 70.0146 16.2763 69.8455 16.326C69.6798 16.3724 69.4876 16.4138 69.2688 16.4503C69.0534 16.4834 68.8429 16.5133 68.6374 16.5398C68.4353 16.563 68.2712 16.5829 68.1453 16.5994C67.8403 16.6392 67.5553 16.7038 67.2901 16.7933C67.0283 16.8795 66.8162 17.0104 66.6538 17.1861C66.4947 17.3584 66.4151 17.5937 66.4151 17.892C66.4151 18.2997 66.5659 18.608 66.8676 18.8168C67.1725 19.0223 67.5586 19.125 68.0259 19.125ZM74.9507 22.8636C74.7519 22.8636 74.5745 22.8471 74.4188 22.8139C74.263 22.7841 74.1553 22.7543 74.0956 22.7244L74.3939 21.6903C74.6789 21.7633 74.9308 21.7898 75.1496 21.7699C75.3683 21.75 75.5622 21.6522 75.7313 21.4766C75.9036 21.3042 76.061 21.0241 76.2036 20.6364L76.4223 20.0398L73.5984 12.3636H74.8712L76.9791 18.4489H77.0587L79.1666 12.3636H80.4394L77.1979 21.1136C77.052 21.508 76.8714 21.8345 76.656 22.093C76.4405 22.3549 76.1903 22.5488 75.9053 22.6747C75.6235 22.8007 75.3054 22.8636 74.9507 22.8636ZM88.3771 14.0739L87.3231 14.3722C87.2568 14.1965 87.1591 14.0258 87.0298 13.8601C86.9038 13.6911 86.7315 13.5518 86.5128 13.4425C86.294 13.3331 86.0139 13.2784 85.6726 13.2784C85.2052 13.2784 84.8158 13.3861 84.5042 13.6016C84.196 13.8137 84.0419 14.0838 84.0419 14.4119C84.0419 14.7036 84.1479 14.9339 84.3601 15.103C84.5722 15.272 84.9036 15.4129 85.3544 15.5256L86.4879 15.804C87.1707 15.9697 87.6794 16.2232 88.0142 16.5646C88.3489 16.9027 88.5163 17.3385 88.5163 17.8722C88.5163 18.3097 88.3904 18.7008 88.1385 19.0455C87.8899 19.3902 87.5419 19.6619 87.0944 19.8608C86.647 20.0597 86.1266 20.1591 85.5333 20.1591C84.7545 20.1591 84.1098 19.9901 83.5994 19.652C83.089 19.3139 82.7658 18.8201 82.6299 18.1705L83.7436 17.892C83.8496 18.303 84.0502 18.6113 84.3451 18.8168C84.6434 19.0223 85.0329 19.125 85.5135 19.125C86.0603 19.125 86.4945 19.009 86.816 18.777C87.1408 18.5417 87.3032 18.2599 87.3032 17.9318C87.3032 17.6667 87.2104 17.4446 87.0248 17.2656C86.8392 17.0833 86.5542 16.9474 86.1697 16.858L84.897 16.5597C84.1976 16.3939 83.6839 16.1371 83.3558 15.7891C83.031 15.4377 82.8686 14.9986 82.8686 14.4716C82.8686 14.0407 82.9895 13.6596 83.2315 13.3281C83.4768 12.9967 83.8099 12.7365 84.2308 12.5476C84.655 12.3587 85.1356 12.2642 85.6726 12.2642C86.4282 12.2642 87.0215 12.4299 87.4524 12.7614C87.8866 13.0928 88.1948 13.5303 88.3771 14.0739Z" fill="#9AF47B"/>
<path d="M42.321 20.179C41.8371 20.179 41.398 20.0878 41.0036 19.9055C40.6091 19.7199 40.2959 19.4531 40.0639 19.1051C39.8319 18.7538 39.7159 18.3295 39.7159 17.8324C39.7159 17.3949 39.8021 17.0402 39.9744 16.7685C40.1468 16.4934 40.3771 16.2779 40.6655 16.1222C40.9538 15.9664 41.272 15.8504 41.62 15.7741C41.9714 15.6946 42.3243 15.6316 42.679 15.5852C43.143 15.5256 43.5192 15.4808 43.8075 15.451C44.0992 15.4179 44.3113 15.3632 44.4439 15.2869C44.5798 15.2107 44.6477 15.0781 44.6477 14.8892V14.8494C44.6477 14.3589 44.5135 13.9777 44.245 13.706C43.9799 13.4342 43.5772 13.2983 43.0369 13.2983C42.4768 13.2983 42.0376 13.4209 41.7195 13.6662C41.4013 13.9115 41.1776 14.1733 41.0483 14.4517L39.9347 14.054C40.1335 13.59 40.3987 13.2287 40.7301 12.9702C41.0649 12.7083 41.4295 12.526 41.8239 12.4233C42.2216 12.3172 42.6127 12.2642 42.9972 12.2642C43.2424 12.2642 43.5241 12.294 43.8423 12.3537C44.1638 12.41 44.4737 12.5277 44.772 12.7067C45.0736 12.8857 45.3239 13.1558 45.5227 13.517C45.7216 13.8783 45.821 14.3622 45.821 14.9688V20H44.6477V18.9659H44.5881C44.5085 19.1316 44.3759 19.3089 44.1903 19.4979C44.0047 19.6868 43.7578 19.8475 43.4496 19.9801C43.1413 20.1127 42.7652 20.179 42.321 20.179ZM42.5 19.125C42.964 19.125 43.3551 19.0339 43.6733 18.8516C43.9948 18.6693 44.2367 18.4339 44.3991 18.1456C44.5649 17.8572 44.6477 17.554 44.6477 17.2358V16.1619C44.598 16.2216 44.4886 16.2763 44.3196 16.326C44.1539 16.3724 43.9616 16.4138 43.7429 16.4503C43.5275 16.4834 43.317 16.5133 43.1115 16.5398C42.9093 16.563 42.7453 16.5829 42.6193 16.5994C42.3144 16.6392 42.0294 16.7038 41.7642 16.7933C41.5024 16.8795 41.2902 17.0104 41.1278 17.1861C40.9688 17.3584 40.8892 17.5937 40.8892 17.892C40.8892 18.2997 41.04 18.608 41.3416 18.8168C41.6465 19.0223 42.0327 19.125 42.5 19.125ZM50.1158 9.81818V20H48.9425V9.81818H50.1158ZM54.9749 20L52.6482 12.3636H53.8812L55.5317 18.2102H55.6113L57.242 12.3636H58.4948L60.1056 18.1903H60.1851L61.8357 12.3636H63.0687L60.742 20H59.5886L57.9181 14.1335H57.7988L56.1283 20H54.9749ZM67.847 20.179C67.3631 20.179 66.9239 20.0878 66.5295 19.9055C66.1351 19.7199 65.8219 19.4531 65.5899 19.1051C65.3579 18.7538 65.2418 18.3295 65.2418 17.8324C65.2418 17.3949 65.328 17.0402 65.5004 16.7685C65.6727 16.4934 65.9031 16.2779 66.1914 16.1222C66.4798 15.9664 66.798 15.8504 67.146 15.7741C67.4973 15.6946 67.8503 15.6316 68.2049 15.5852C68.6689 15.5256 69.0451 15.4808 69.3335 15.451C69.6251 15.4179 69.8373 15.3632 69.9698 15.2869C70.1057 15.2107 70.1737 15.0781 70.1737 14.8892V14.8494C70.1737 14.3589 70.0394 13.9777 69.771 13.706C69.5058 13.4342 69.1031 13.2983 68.5629 13.2983C68.0027 13.2983 67.5636 13.4209 67.2454 13.6662C66.9272 13.9115 66.7035 14.1733 66.5742 14.4517L65.4606 14.054C65.6595 13.59 65.9246 13.2287 66.2561 12.9702C66.5908 12.7083 66.9554 12.526 67.3498 12.4233C67.7475 12.3172 68.1386 12.2642 68.5231 12.2642C68.7684 12.2642 69.0501 12.294 69.3683 12.3537C69.6898 12.41 69.9997 12.5277 70.298 12.7067C70.5996 12.8857 70.8498 13.1558 71.0487 13.517C71.2475 13.8783 71.347 14.3622 71.347 14.9688V20H70.1737V18.9659H70.114C70.0345 19.1316 69.9019 19.3089 69.7163 19.4979C69.5307 19.6868 69.2838 19.8475 68.9755 19.9801C68.6673 20.1127 68.2911 20.179 67.847 20.179ZM68.0259 19.125C68.49 19.125 68.8811 19.0339 69.1992 18.8516C69.5207 18.6693 69.7627 18.4339 69.9251 18.1456C70.0908 17.8572 70.1737 17.554 70.1737 17.2358V16.1619C70.1239 16.2216 70.0146 16.2763 69.8455 16.326C69.6798 16.3724 69.4876 16.4138 69.2688 16.4503C69.0534 16.4834 68.8429 16.5133 68.6374 16.5398C68.4353 16.563 68.2712 16.5829 68.1453 16.5994C67.8403 16.6392 67.5553 16.7038 67.2901 16.7933C67.0283 16.8795 66.8162 17.0104 66.6538 17.1861C66.4947 17.3584 66.4151 17.5937 66.4151 17.892C66.4151 18.2997 66.5659 18.608 66.8676 18.8168C67.1725 19.0223 67.5586 19.125 68.0259 19.125ZM74.9507 22.8636C74.7519 22.8636 74.5745 22.8471 74.4188 22.8139C74.263 22.7841 74.1553 22.7543 74.0956 22.7244L74.3939 21.6903C74.6789 21.7633 74.9308 21.7898 75.1496 21.7699C75.3683 21.75 75.5622 21.6522 75.7313 21.4766C75.9036 21.3042 76.061 21.0241 76.2036 20.6364L76.4223 20.0398L73.5984 12.3636H74.8712L76.9791 18.4489H77.0587L79.1666 12.3636H80.4394L77.1979 21.1136C77.052 21.508 76.8714 21.8345 76.656 22.093C76.4405 22.3549 76.1903 22.5488 75.9053 22.6747C75.6235 22.8007 75.3054 22.8636 74.9507 22.8636ZM88.3771 14.0739L87.3231 14.3722C87.2568 14.1965 87.1591 14.0258 87.0298 13.8601C86.9038 13.6911 86.7315 13.5518 86.5128 13.4425C86.294 13.3331 86.0139 13.2784 85.6726 13.2784C85.2052 13.2784 84.8158 13.3861 84.5042 13.6016C84.196 13.8137 84.0419 14.0838 84.0419 14.4119C84.0419 14.7036 84.1479 14.9339 84.3601 15.103C84.5722 15.272 84.9036 15.4129 85.3544 15.5256L86.4879 15.804C87.1707 15.9697 87.6794 16.2232 88.0142 16.5646C88.3489 16.9027 88.5163 17.3385 88.5163 17.8722C88.5163 18.3097 88.3904 18.7008 88.1385 19.0455C87.8899 19.3902 87.5419 19.6619 87.0944 19.8608C86.647 20.0597 86.1266 20.1591 85.5333 20.1591C84.7545 20.1591 84.1098 19.9901 83.5994 19.652C83.089 19.3139 82.7658 18.8201 82.6299 18.1705L83.7436 17.892C83.8496 18.303 84.0502 18.6113 84.3451 18.8168C84.6434 19.0223 85.0329 19.125 85.5135 19.125C86.0603 19.125 86.4945 19.009 86.816 18.777C87.1408 18.5417 87.3032 18.2599 87.3032 17.9318C87.3032 17.6667 87.2104 17.4446 87.0248 17.2656C86.8392 17.0833 86.5542 16.9474 86.1697 16.858L84.897 16.5597C84.1976 16.3939 83.6839 16.1371 83.3558 15.7891C83.031 15.4377 82.8686 14.9986 82.8686 14.4716C82.8686 14.0407 82.9895 13.6596 83.2315 13.3281C83.4768 12.9967 83.8099 12.7365 84.2308 12.5476C84.655 12.3587 85.1356 12.2642 85.6726 12.2642C86.4282 12.2642 87.0215 12.4299 87.4524 12.7614C87.8866 13.0928 88.1948 13.5303 88.3771 14.0739Z" fill="#9AF47B"/>
<path d="M94.9265 12.3636V13.7557H90.5366V12.3636H94.9265ZM91.6204 10.5341H93.4201V17.7031C93.4201 17.9451 93.4566 18.1307 93.5295 18.2599C93.6057 18.3859 93.7052 18.4721 93.8278 18.5185C93.9504 18.5649 94.0863 18.5881 94.2355 18.5881C94.3482 18.5881 94.4509 18.5798 94.5437 18.5632C94.6398 18.5466 94.7127 18.5317 94.7625 18.5185L95.0657 19.9254C94.9696 19.9586 94.8321 19.995 94.6531 20.0348C94.4774 20.0746 94.262 20.0978 94.0068 20.1044C93.556 20.1177 93.15 20.0497 92.7887 19.9006C92.4275 19.7481 92.1408 19.5128 91.9287 19.1946C91.7198 18.8764 91.6171 18.4787 91.6204 18.0014V10.5341ZM97.4117 20V12.3636H99.1567V13.6364H99.2362C99.3754 13.1955 99.6141 12.8558 99.9522 12.6172C100.294 12.3752 100.683 12.2543 101.12 12.2543C101.22 12.2543 101.331 12.2592 101.454 12.2692C101.58 12.2758 101.684 12.2874 101.767 12.304V13.9595C101.691 13.933 101.57 13.9098 101.404 13.8899C101.241 13.8667 101.084 13.8551 100.932 13.8551C100.603 13.8551 100.308 13.9264 100.047 14.0689C99.7881 14.2081 99.5843 14.402 99.4351 14.6506C99.286 14.8991 99.2114 15.1858 99.2114 15.5107V20H97.4117ZM108.81 16.7884V12.3636H110.609V20H108.864V18.6428H108.785C108.612 19.0703 108.329 19.42 107.935 19.6918C107.544 19.9635 107.061 20.0994 106.488 20.0994C105.987 20.0994 105.545 19.9884 105.16 19.7663C104.779 19.541 104.481 19.2145 104.266 18.7869C104.05 18.3561 103.942 17.8357 103.942 17.2259V12.3636H105.742V16.9474C105.742 17.4313 105.875 17.8158 106.14 18.1009C106.405 18.3859 106.753 18.5284 107.184 18.5284C107.449 18.5284 107.706 18.4638 107.955 18.3345C108.203 18.2053 108.407 18.013 108.566 17.7578C108.728 17.4993 108.81 17.1761 108.81 16.7884ZM116.821 20.1491C116.055 20.1491 115.394 19.9901 114.837 19.6719C114.284 19.3504 113.858 18.8963 113.559 18.3097C113.261 17.7197 113.112 17.0253 113.112 16.2266C113.112 15.4411 113.261 14.7517 113.559 14.1584C113.861 13.5618 114.282 13.0978 114.822 12.7663C115.362 12.4316 115.997 12.2642 116.726 12.2642C117.197 12.2642 117.641 12.3404 118.059 12.4929C118.48 12.642 118.851 12.8741 119.172 13.1889C119.497 13.5038 119.752 13.9048 119.938 14.392C120.124 14.8759 120.216 15.4527 120.216 16.1222V16.674H113.957V15.4609H118.491C118.488 15.1162 118.413 14.8097 118.267 14.5412C118.122 14.2694 117.918 14.0556 117.656 13.8999C117.397 13.7441 117.096 13.6662 116.751 13.6662C116.383 13.6662 116.06 13.7557 115.782 13.9347C115.503 14.1103 115.286 14.3423 115.13 14.6307C114.978 14.9157 114.9 15.2289 114.897 15.5703V16.6293C114.897 17.0734 114.978 17.4545 115.14 17.7727C115.303 18.0876 115.53 18.3295 115.821 18.4986C116.113 18.6643 116.454 18.7472 116.846 18.7472C117.107 18.7472 117.344 18.7107 117.557 18.6378C117.769 18.5616 117.953 18.4505 118.108 18.3047C118.264 18.1589 118.382 17.9782 118.461 17.7628L120.142 17.9517C120.036 18.3958 119.833 18.7836 119.535 19.1151C119.24 19.4432 118.862 19.6984 118.402 19.8807C117.941 20.0597 117.414 20.1491 116.821 20.1491Z" fill="#9AF47B"/>
<path fill-rule="evenodd" clip-rule="evenodd" d="M2.20532 0C0.987356 0 0 0.987357 0 2.20532V26.7947C0 28.0127 0.987357 29 2.20532 29H26.7947C28.0127 29 29 28.0127 29 26.7947V2.20532C29 0.987356 28.0127 0 26.7947 0H2.20532ZM4.30038 3.63878H14.8308C16.0944 3.63878 16.9369 4.65908 16.9369 5.67938V9.76056H12.7247V7.71997H6.40646C5.14281 7.71997 4.30038 6.69967 4.30038 5.67938V3.63878ZM12.7247 12.4312V21.28H6.40646C5.14281 21.28 4.30038 22.3003 4.30038 23.3206V25.3612H23.2551C23.2551 25.3612 25.3612 25.3612 25.3612 23.4226C25.3612 21.28 23.2551 21.28 23.2551 21.28H16.9369V12.4312H12.7247Z" fill="#9AF47B"/>
</svg>
